<?xml version="1.0" encoding="UTF-8" standalone="no"?>
<svg width="175px" height="28px" viewBox="0 0 175 28" version="1.1" xmlns="http://www.w3.org/2000/svg" xmlns:xlink="http://www.w3.org/1999/xlink">
    <g id="Page-1" stroke="none" stroke-width="1" fill="none" fill-rule="evenodd" sketch:type="MSPage">
        <g id="skolptiles" sketch:type="MSLayerGroup" transform="translate(-1.000000, -703.000000)" fill="#000000">
            <path d="M14.4573274,722.342871 C14.4573274,724.118098 12.9844811,725.441014 10.7166256,725.441014 C8.37443472,725.441014 7.05277888,724.080301 7.05277888,722.342871 L7.05277888,721.208943 C7.05277888,720.79443 6.71260054,720.454251 6.29682702,720.454251 L2.48178996,720.454251 C2.06601644,720.454251 1.7258381,720.79443 1.7258381,721.208943 L1.7258381,722.342871 C1.7258381,726.951658 5.50307756,730.616764 10.7166256,730.616764 C16.0813639,730.616764 19.9354585,727.254038 19.9354585,722.342871 C19.9354585,717.091526 16.0435663,714.900525 10.7922208,713.842193 C8.82800583,713.464217 7.43075481,712.558334 7.43075481,711.122026 C7.43075481,709.611382 8.60122027,708.477454 10.7166256,708.477454 C12.8710884,708.477454 14.0793514,709.80037 14.0793514,711.311014 L14.0793514,711.877978 C14.0793514,712.293751 14.4195298,712.633929 14.8353033,712.633929 L18.6503403,712.633929 C19.0661139,712.633929 19.4062922,712.293751 19.4062922,711.877978 L19.4062922,711.311014 C19.4062922,706.853418 15.7789832,703.339501 10.7166256,703.339501 C5.72986312,703.339501 2.06601644,706.853418 2.06601644,711.311014 C2.06601644,716.184383 5.80545831,718.263251 10.5288975,719.320324 C13.3611972,719.962883 14.4573274,720.718835 14.4573274,722.342871 L14.4573274,722.342871 Z M35.6139001,729.74742 C35.7272929,729.936408 35.9150209,730.200991 36.4819848,730.200991 L40.562865,730.200991 C41.3931521,730.200991 41.6955328,729.293849 41.3553545,728.765942 L33.6106277,716.789145 C33.3082469,716.335574 33.2704493,716.033193 33.6106277,715.543084 L40.6762577,705.115988 C41.0529737,704.549024 40.7518529,703.755275 40.0336987,703.755275 L36.2174017,703.755275 C35.6516977,703.755275 35.5005073,703.98206 35.3871145,704.133251 L29.1530315,713.313026 C29.0396388,713.464217 28.7750556,713.426419 28.7750556,713.200893 L28.7750556,704.511227 C28.7750556,704.095453 28.4348773,703.755275 28.0191037,703.755275 L24.2796619,703.755275 C23.8638883,703.755275 23.52371,704.095453 23.52371,704.511227 L23.52371,729.445039 C23.52371,729.860812 23.8638883,730.200991 24.2796619,730.200991 L28.0191037,730.200991 C28.4348773,730.200991 28.7750556,729.860812 28.7750556,729.445039 L28.7750556,719.547109 C28.7750556,719.320324 29.0396388,719.282526 29.1530315,719.433716 L35.6139001,729.74742 Z M51.5569249,725.289824 C49.2512717,725.289824 48.0808062,723.92911 47.8918182,722.267276 C47.5138423,719.093538 47.5138423,714.862728 47.8918182,711.68899 C48.0808062,710.027155 49.2512717,708.666442 51.5569249,708.666442 C53.8613181,708.666442 55.0317836,710.027155 55.2207715,711.68899 C55.5987475,714.862728 55.5987475,719.093538 55.2207715,722.267276 C55.0317836,723.92911 53.8613181,725.289824 51.5569249,725.289824 L51.5569249,725.289824 Z M51.5569249,703.339501 C46.3433769,703.339501 43.0940438,707.155798 42.5648775,711.68899 C42.1869015,714.862728 42.1869015,719.093538 42.5648775,722.267276 C43.0940438,726.800467 46.3433769,730.616764 51.5569249,730.616764 C56.7704729,730.616764 60.018546,726.800467 60.5477123,722.267276 C60.9256883,719.093538 60.9256883,714.862728 60.5477123,711.68899 C60.018546,707.155798 56.7704729,703.339501 51.5569249,703.339501 L51.5569249,703.339501 Z M70.2944516,704.511227 C70.2944516,704.095453 69.9542733,703.755275 69.5384998,703.755275 L65.7612603,703.755275 C65.3454868,703.755275 65.0053085,704.095453 65.0053085,704.511227 L65.0053085,729.445039 C65.0053085,729.860812 65.3454868,730.200991 65.7612603,730.200991 L78.6061424,730.200991 C79.020656,730.200991 79.3608343,729.860812 79.3608343,729.445039 L79.3608343,725.667799 C79.3608343,725.252026 79.020656,724.911848 78.6061424,724.911848 L70.6724276,724.911848 C70.445642,724.911848 70.2944516,724.760657 70.2944516,724.533872 L70.2944516,704.511227 Z M82.9503457,703.755275 C82.5345722,703.755275 82.1943939,704.095453 82.1943939,704.511227 L82.1943939,729.445039 C82.1943939,729.860812 82.5345722,730.200991 82.9503457,730.200991 L86.7275852,730.200991 C87.1433587,730.200991 87.483537,729.860812 87.483537,729.445039 L87.483537,720.00068 C87.483537,719.773895 87.6347274,719.622704 87.861513,719.622704 L91.2607765,719.622704 C95.6062398,719.622704 99.1944913,716.070991 99.1944913,711.68899 C99.1944913,707.344786 95.6062398,703.755275 91.2607765,703.755275 L82.9503457,703.755275 Z M91.2607765,709.044418 C92.697085,709.044418 93.9053481,710.253941 93.9053481,711.68899 C93.9053481,713.163096 92.697085,714.333561 91.2607765,714.333561 L87.861513,714.333561 C87.6347274,714.333561 87.483537,714.182371 87.483537,713.955585 L87.483537,709.422394 C87.483537,709.195608 87.6347274,709.044418 87.861513,709.044418 L91.2607765,709.044418 Z M109.772778,707.344786 L114.75954,707.344786 C115.175314,707.344786 115.515492,707.004608 115.515492,706.588834 L115.515492,704.511227 C115.515492,704.095453 115.175314,703.755275 114.75954,703.755275 L100.404014,703.755275 C99.9882407,703.755275 99.6480624,704.095453 99.6480624,704.511227 L99.6480624,706.588834 C99.6480624,707.004608 99.9882407,707.344786 100.404014,707.344786 L105.428574,707.344786 C105.65536,707.344786 105.80529,707.495977 105.80529,707.722762 L105.80529,729.445039 C105.80529,729.860812 106.145469,730.200991 106.561242,730.200991 L108.63885,730.200991 C109.054623,730.200991 109.394802,729.860812 109.394802,729.445039 L109.394802,707.722762 C109.394802,707.495977 109.545992,707.344786 109.772778,707.344786 L109.772778,707.344786 Z M121.634922,704.511227 C121.634922,704.095453 121.294744,703.755275 120.88023,703.755275 L118.801363,703.755275 C118.385589,703.755275 118.046671,704.095453 118.046671,704.511227 L118.046671,729.445039 C118.046671,729.860812 118.385589,730.200991 118.801363,730.200991 L120.88023,730.200991 C121.294744,730.200991 121.634922,729.860812 121.634922,729.445039 L121.634922,704.511227 Z M130.135601,704.511227 C130.135601,704.095453 129.795423,703.755275 129.379649,703.755275 L127.302041,703.755275 C126.886268,703.755275 126.54609,704.095453 126.54609,704.511227 L126.54609,729.445039 C126.54609,729.860812 126.886268,730.200991 127.302041,730.200991 L138.975198,730.200991 C139.390972,730.200991 139.73115,729.860812 139.73115,729.445039 L139.73115,727.367431 C139.73115,726.951658 139.390972,726.611479 138.975198,726.611479 L130.512317,726.611479 C130.286791,726.611479 130.135601,726.460289 130.135601,726.233503 L130.135601,704.511227 Z M146.152961,718.866753 C146.152961,718.639967 146.304151,718.488777 146.530937,718.488777 L155.107211,718.488777 C155.522984,718.488777 155.863163,718.149858 155.863163,717.734085 L155.863163,715.656477 C155.863163,715.240703 155.522984,714.900525 155.107211,714.900525 L146.530937,714.900525 C146.304151,714.900525 146.152961,714.749335 146.152961,714.522549 L146.152961,707.722762 C146.152961,707.495977 146.304151,707.344786 146.530937,707.344786 L155.522984,707.344786 C155.938758,707.344786 156.277676,707.004608 156.277676,706.588834 L156.277676,704.511227 C156.277676,704.095453 155.938758,703.755275 155.522984,703.755275 L143.319401,703.755275 C142.904888,703.755275 142.564709,704.095453 142.564709,704.511227 L142.564709,729.445039 C142.564709,729.860812 142.904888,730.200991 143.319401,730.200991 L155.598579,730.200991 C156.013093,730.200991 156.353271,729.860812 156.353271,729.445039 L156.353271,727.367431 C156.353271,726.951658 156.013093,726.611479 155.598579,726.611479 L146.530937,726.611479 C146.304151,726.611479 146.152961,726.460289 146.152961,726.233503 L146.152961,718.866753 Z M172.371891,722.645252 C172.371891,725.063038 170.330821,726.91386 167.498522,726.91386 C164.664962,726.91386 162.623892,725.100836 162.623892,722.645252 L162.623892,722.04049 C162.623892,721.624717 162.284974,721.284539 161.8692,721.284539 L159.753795,721.284539 C159.338021,721.284539 158.997843,721.624717 158.997843,722.04049 L158.997843,722.645252 C158.997843,726.951658 162.623892,730.503372 167.498522,730.503372 C171.880523,730.503372 175.99794,727.480824 175.99794,722.645252 C175.99794,718.301049 173.315571,715.882003 169.009165,714.82493 C166.553582,714.220168 163.342046,713.87999 163.342046,710.556322 C163.342046,708.401859 165.042938,707.042406 167.498522,707.042406 C169.424939,707.042406 171.653737,708.025143 171.653737,710.556322 L171.653737,711.046431 C171.653737,711.462204 171.993915,711.802382 172.409689,711.802382 L174.487297,711.802382 C174.90307,711.802382 175.243249,711.462204 175.243249,711.046431 L175.243249,710.556322 C175.243249,706.66443 171.956118,703.452894 167.498522,703.452894 C163.60663,703.452894 159.715997,706.021871 159.715997,710.556322 C159.715997,714.67374 162.322771,716.940335 166.024416,717.771882 C169.840713,718.639967 172.371891,719.131336 172.371891,722.645252 L172.371891,722.645252 Z" id="Fill-6" sketch:type="MSShapeGroup"></path>
        </g>
    </g>
</svg>