<?xml version="1.0" encoding="UTF-8" standalone="no"?>
<svg width="93px" height="21px" viewBox="0 0 93 21" version="1.1" xmlns="http://www.w3.org/2000/svg" xmlns:xlink="http://www.w3.org/1999/xlink">
    <g stroke="none" stroke-width="1" fill="none" fill-rule="evenodd">
        <g id="skolptiles_tag" fill="#000000">
            <g id="Group">
                <path d="M4.977,8.79 C2.724,8.284 1.137,6.904 1.137,4.398 C1.137,1.638 3.505,0.075 5.874,0.075 C8.587,0.075 10.588,2.029 10.588,4.398 L10.588,4.697 C10.588,4.95 10.381,5.157 10.128,5.157 L8.863,5.157 C8.61,5.157 8.403,4.95 8.403,4.697 L8.403,4.398 C8.403,2.857 7.047,2.259 5.874,2.259 C4.379,2.259 3.345,3.086 3.345,4.398 C3.345,6.421 5.3,6.628 6.794,6.996 C9.415,7.641 11.048,9.112 11.048,11.757 C11.048,14.7 8.542,16.539 5.874,16.539 C2.908,16.539 0.7,14.378 0.7,11.757 L0.7,11.389 C0.7,11.136 0.907,10.929 1.16,10.929 L2.448,10.929 C2.701,10.929 2.908,11.136 2.908,11.389 L2.908,11.757 C2.908,13.251 4.15,14.355 5.874,14.355 C7.598,14.355 8.84,13.229 8.84,11.757 C8.84,9.618 7.299,9.319 4.977,8.79 L4.977,8.79 Z" id="Shape"></path>
                <path d="M16.868,10.055 C16.684,10.24 16.684,10.4 16.868,10.607 L21.467,15.597 C21.743,15.896 21.536,16.356 21.099,16.356 L19.558,16.356 C19.213,16.356 19.075,16.127 18.96,16.011 L15.488,12.24 C15.419,12.171 15.304,12.171 15.304,12.286 L15.304,15.896 C15.304,16.149 15.097,16.356 14.844,16.356 L13.694,16.356 C13.441,16.356 13.234,16.149 13.234,15.896 L13.234,0.558 C13.234,0.305 13.441,0.098 13.694,0.098 L14.844,0.098 C15.097,0.098 15.304,0.305 15.304,0.558 L15.304,8.561 C15.304,8.675 15.419,8.699 15.488,8.607 L18.777,5.158 C18.892,5.043 19.007,4.859 19.352,4.859 L20.663,4.859 C21.146,4.859 21.261,5.387 21.031,5.618 L16.868,10.055 L16.868,10.055 Z" id="Shape"></path>
                <path d="M22.227,8.997 C22.411,6.583 24.182,4.628 26.941,4.628 C29.701,4.628 31.471,6.583 31.655,8.997 C31.724,9.917 31.724,11.297 31.655,12.217 C31.471,14.631 29.7,16.585 26.941,16.585 C24.182,16.585 22.411,14.631 22.227,12.217 C22.158,11.297 22.158,9.917 22.227,8.997 L22.227,8.997 Z M24.297,12.217 C24.389,13.436 25.355,14.516 26.941,14.516 C28.528,14.516 29.494,13.436 29.586,12.217 C29.655,11.274 29.655,9.94 29.586,8.997 C29.494,7.778 28.528,6.697 26.941,6.697 C25.355,6.697 24.389,7.778 24.297,8.997 C24.228,9.939 24.228,11.273 24.297,12.217 L24.297,12.217 Z" id="Shape"></path>
                <path d="M35.797,15.896 C35.797,16.149 35.59,16.356 35.337,16.356 L34.187,16.356 C33.934,16.356 33.727,16.149 33.727,15.896 L33.727,0.558 C33.727,0.305 33.934,0.098 34.187,0.098 L35.337,0.098 C35.59,0.098 35.797,0.305 35.797,0.558 L35.797,15.896 L35.797,15.896 Z" id="Shape"></path>
                <path d="M47.801,8.997 C47.87,9.917 47.87,11.297 47.801,12.217 C47.617,14.631 45.846,16.585 43.432,16.585 C42.374,16.585 41.753,16.011 41.293,16.011 C40.948,16.011 40.787,16.149 40.787,16.585 L40.787,20.494 C40.787,20.747 40.58,20.954 40.327,20.954 L39.178,20.954 C38.925,20.954 38.718,20.747 38.718,20.494 L38.718,5.317 C38.718,5.064 38.925,4.858 39.178,4.858 L39.96,4.858 C40.098,4.858 40.19,4.926 40.282,5.018 C40.42,5.179 40.627,5.386 40.857,5.386 C41.524,5.386 41.731,4.627 43.432,4.627 C45.847,4.628 47.617,6.583 47.801,8.997 L47.801,8.997 Z M45.847,8.997 C45.755,7.778 44.789,6.697 43.202,6.697 C41.616,6.697 40.65,7.778 40.557,8.997 C40.488,9.939 40.488,11.273 40.557,12.217 C40.649,13.436 41.615,14.516 43.202,14.516 C44.789,14.516 45.755,13.436 45.847,12.217 C45.916,11.273 45.916,9.939 45.847,8.997 L45.847,8.997 Z" id="Shape"></path>
                <path d="M61.303,4.973 C61.556,4.973 61.763,5.18 61.763,5.433 L61.763,5.871 C61.763,6.124 61.556,6.331 61.303,6.331 L58.406,6.331 C58.268,6.331 58.177,6.423 58.177,6.56 L58.177,12.677 C58.177,14.286 58.729,15.068 60.361,15.068 L61.534,15.068 C61.787,15.068 61.994,15.275 61.994,15.528 L61.994,15.896 C61.994,16.149 61.787,16.356 61.534,16.356 L60.36,16.356 C57.969,16.356 56.796,15.321 56.796,12.677 L56.796,6.56 C56.796,6.422 56.704,6.331 56.566,6.331 L54.703,6.331 C54.45,6.331 54.243,6.124 54.243,5.871 L54.243,5.433 C54.243,5.18 54.45,4.973 54.703,4.973 L56.566,4.973 C56.704,4.973 56.796,4.881 56.796,4.744 L56.796,1.18 C56.796,0.927 57.003,0.72 57.256,0.72 L57.716,0.72 C57.969,0.72 58.176,0.927 58.176,1.18 L58.176,4.744 C58.176,4.882 58.268,4.973 58.405,4.973 L61.303,4.973 L61.303,4.973 Z" id="Shape"></path>
                <path d="M65.834,1.685 C65.834,1.892 65.673,2.053 65.466,2.053 L64.271,2.053 C64.064,2.053 63.903,1.892 63.903,1.685 L63.903,0.466 C63.903,0.282 64.064,0.098 64.271,0.098 L65.466,0.098 C65.673,0.098 65.834,0.283 65.834,0.466 L65.834,1.685 L65.834,1.685 Z M65.582,15.896 C65.582,16.149 65.444,16.356 65.122,16.356 L64.662,16.356 C64.34,16.356 64.202,16.149 64.202,15.896 L64.202,5.317 C64.202,5.064 64.34,4.858 64.662,4.858 L65.122,4.858 C65.444,4.858 65.582,5.064 65.582,5.317 L65.582,15.896 L65.582,15.896 Z" id="Shape"></path>
                <path d="M70.205,15.896 C70.205,16.149 69.998,16.356 69.745,16.356 L69.285,16.356 C69.032,16.356 68.825,16.149 68.825,15.896 L68.825,0.558 C68.825,0.305 69.032,0.098 69.285,0.098 L69.745,0.098 C69.998,0.098 70.205,0.305 70.205,0.558 L70.205,15.896 L70.205,15.896 Z" id="Shape"></path>
                <path d="M74.298,11.158 C74.16,11.158 74.068,11.251 74.068,11.388 C74.068,13.595 75.08,15.228 77.448,15.228 C79.219,15.228 80.185,14.147 80.53,13.067 C80.622,12.768 80.852,12.676 81.059,12.676 L81.519,12.676 C81.749,12.676 81.956,12.814 81.91,13.135 C81.634,15.136 79.84,16.584 77.449,16.584 C74.69,16.584 72.919,14.63 72.735,12.216 C72.666,11.296 72.666,9.916 72.735,8.996 C72.919,6.582 74.69,4.627 77.449,4.627 C80.025,4.627 82.048,6.696 82.048,9.226 L82.048,10.698 C82.048,10.951 81.841,11.158 81.588,11.158 L74.298,11.158 L74.298,11.158 Z M74.114,9.641 C74.114,9.78 74.206,9.871 74.344,9.871 L80.552,9.871 C80.69,9.871 80.782,9.779 80.782,9.641 C80.782,7.296 79.356,5.985 77.471,5.985 C75.425,5.984 74.114,7.296 74.114,9.641 L74.114,9.641 Z" id="Shape"></path>
                <path d="M91.708,8.537 L91.271,8.537 C91.018,8.537 90.811,8.399 90.811,8.055 C90.811,6.928 89.799,5.916 88.189,5.916 C86.58,5.916 85.522,6.836 85.522,7.802 C85.522,9.067 86.948,9.32 88.075,9.527 C90.006,9.872 92.605,10.493 92.605,13.022 C92.605,14.954 90.857,16.585 88.19,16.585 C85.891,16.585 83.752,15.206 83.752,12.906 L83.752,12.607 C83.752,12.354 83.959,12.147 84.212,12.147 L84.649,12.147 C84.902,12.147 85.109,12.354 85.109,12.607 L85.109,12.906 C85.109,14.286 86.488,15.252 88.19,15.252 C90.076,15.252 91.249,14.263 91.249,13.022 C91.249,11.573 89.478,11.113 88.076,10.906 C86.052,10.607 84.144,9.918 84.144,7.802 C84.144,6.008 86.099,4.628 88.191,4.628 C90.261,4.628 92.169,5.916 92.169,8.055 C92.167,8.399 91.96,8.537 91.708,8.537 L91.708,8.537 Z" id="Shape"></path>
            </g>
        </g>
    </g>
</svg>